<?xml version="1.0" standalone="no"?>
<!DOCTYPE svg PUBLIC "-//W3C//DTD SVG 20010904//EN"
 "http://www.w3.org/TR/2001/REC-SVG-20010904/DTD/svg10.dtd">
<svg version="1.0" xmlns="http://www.w3.org/2000/svg"
 width="700.000000pt" height="700.000000pt" viewBox="0 0 700.000000 700.000000"
 preserveAspectRatio="xMidYMid meet">
<metadata>
Created by potrace 1.14, written by Peter Selinger 2001-2017
</metadata>
<g transform="translate(0.000000,700.000000) scale(0.100000,-0.100000)"
fill="#000000" stroke="none">
<path d="M2360 6209 c-245 -28 -553 -127 -612 -198 -74 -88 -21 -228 99 -262
51 -14 50 -14 233 50 257 89 507 111 775 65 79 -13 210 -53 355 -108 155 -59
287 126 178 250 -36 41 -90 70 -209 112 -242 85 -558 120 -819 91z"/>
<path d="M4601 5429 c-97 -12 -205 -36 -325 -71 -92 -27 -116 -38 -147 -69
-49 -49 -60 -107 -31 -171 45 -102 136 -130 278 -85 44 14 96 28 116 32 l36 7
-53 -55 c-57 -58 -114 -165 -134 -252 -17 -69 -15 -228 4 -300 39 -150 132
-271 252 -327 122 -58 252 -40 369 48 50 39 119 139 150 220 36 91 45 266 20
364 -33 130 -105 242 -199 306 l-52 36 75 -7 c202 -17 380 -65 535 -142 68
-35 100 -45 137 -45 91 0 158 65 158 154 0 79 -30 120 -125 173 -146 80 -383
154 -583 180 -120 16 -373 18 -481 4z"/>
<path d="M2497 5339 c-154 -24 -298 -177 -342 -361 -19 -82 -19 -228 0 -303
38 -148 132 -273 250 -331 52 -25 71 -29 145 -29 76 0 93 4 152 33 108 53 203
174 238 302 101 369 -136 737 -443 689z"/>
<path d="M2049 3520 c-93 -17 -149 -90 -149 -194 0 -33 13 -107 32 -174 28
-105 31 -132 32 -262 1 -125 -2 -155 -22 -220 -45 -144 -77 -186 -318 -425
-284 -281 -365 -398 -431 -612 -24 -79 -26 -104 -27 -253 -1 -189 16 -301 70
-470 160 -499 602 -854 1121 -899 156 -14 270 1 656 84 400 86 446 102 539
195 58 59 88 124 88 195 0 47 -40 117 -83 145 l-38 24 48 24 c106 53 163 140
171 259 4 64 1 79 -22 127 -24 49 -70 92 -129 120 -9 4 -9 8 -1 11 38 19 97
72 124 112 101 153 71 318 -76 419 -30 21 -53 39 -51 40 2 2 246 62 543 134
296 71 557 137 580 145 57 22 118 77 144 131 42 86 12 254 -57 316 -10 10 -40
27 -66 38 -77 34 -141 28 -427 -39 -550 -129 -1767 -410 -1803 -416 -43 -8
-87 14 -87 44 0 10 25 49 55 86 118 144 156 247 163 445 9 284 -77 558 -228
723 -102 112 -237 169 -351 147z"/>
<path d="M3115 3239 c-140 -16 -255 -41 -287 -62 -44 -30 -70 -78 -70 -131 0
-54 20 -93 66 -134 51 -45 90 -48 241 -23 393 64 810 -20 1099 -223 53 -37 65
-41 120 -41 48 0 68 5 94 23 69 50 87 149 39 221 -49 73 -278 204 -483 274
-259 90 -564 126 -819 96z"/>
</g>
</svg>
