<?xml version="1.0" standalone="no"?>
<!DOCTYPE svg PUBLIC "-//W3C//DTD SVG 20010904//EN"
 "http://www.w3.org/TR/2001/REC-SVG-20010904/DTD/svg10.dtd">
<svg version="1.0" xmlns="http://www.w3.org/2000/svg"
 width="1108.000000pt" height="1108.000000pt" viewBox="0 0 1108.000000 1108.000000"
 preserveAspectRatio="xMidYMid meet">
<metadata>
Created by potrace 1.14, written by Peter Selinger 2001-2017
</metadata>
<g transform="translate(0.000000,1108.000000) scale(0.100000,-0.100000)"
fill="#000000" stroke="none">
<path d="M5313 9161 c-41 -29 -73 -89 -73 -135 0 -13 6 -42 14 -64 l15 -41
-36 -22 c-90 -56 -137 -179 -137 -364 -1 -66 2 -147 7 -180 7 -59 7 -60 -23
-77 -42 -24 -70 -74 -70 -128 0 -52 45 -358 60 -410 5 -19 10 -78 10 -130 0
-52 6 -123 13 -156 14 -65 12 -75 -15 -113 l-16 -23 -59 40 c-209 142 -454
253 -648 293 -91 19 -268 17 -340 -5 -243 -73 -397 -293 -450 -641 -20 -131
-20 -433 0 -595 8 -69 29 -195 46 -280 17 -85 32 -161 33 -168 0 -8 -57 -32
-159 -66 -409 -136 -700 -299 -905 -506 -150 -151 -212 -265 -233 -429 -9 -75
-8 -98 7 -162 57 -237 260 -461 589 -651 213 -123 402 -203 694 -293 9 -3 9
-13 2 -37 -20 -70 -60 -284 -75 -406 -19 -153 -22 -464 -5 -577 17 -107 47
-225 77 -299 13 -32 23 -60 21 -61 -1 -2 -252 -8 -557 -14 -625 -13 -967 -24
-1505 -48 -550 -24 -632 -22 -690 21 -18 13 -18 16 22 67 57 75 73 111 73 162
0 58 -35 111 -111 166 l-60 44 30 15 c93 45 94 191 2 245 -31 18 -31 18 -40
-5 l-8 -23 -7 23 c-16 50 -114 11 -145 -59 -14 -30 -21 -36 -28 -27 -20 25
-24 71 -17 213 l7 144 29 12 c15 6 42 27 58 46 24 27 30 43 30 81 0 85 -56
142 -140 142 -38 0 -40 -1 -40 -32 -1 -30 -2 -31 -12 -13 -6 11 -12 21 -14 23
-8 10 -44 -22 -58 -52 -34 -71 -7 -154 61 -186 29 -13 33 -19 33 -58 l0 -44
-30 26 c-35 29 -85 41 -130 31 -29 -6 -31 -9 -24 -38 6 -31 6 -32 -13 -15 -11
10 -22 18 -26 18 -16 0 -37 -63 -37 -110 0 -43 5 -55 33 -86 53 -58 141 -64
195 -14 l22 21 0 -28 c0 -88 68 -179 202 -270 l70 -48 -32 -6 c-36 -8 -90 -55
-90 -78 0 -9 14 -28 32 -44 l33 -27 -42 6 -42 6 9 -32 c20 -71 70 -110 141
-110 l31 0 -21 -32 c-12 -20 -28 -32 -38 -31 -45 6 -72 -9 -98 -53 -24 -40
-29 -44 -65 -44 -21 0 -123 -9 -227 -20 -298 -32 -423 -60 -423 -95 0 -18 49
-41 109 -51 52 -8 52 -20 0 -28 -60 -10 -109 -33 -109 -51 0 -67 529 -124
1585 -169 1156 -50 1964 -63 3955 -63 1654 0 2442 9 3270 36 1506 50 2270 116
2270 196 0 18 -49 41 -109 51 -52 8 -52 20 0 28 60 10 109 33 109 51 0 32
-120 62 -358 88 -67 8 -125 17 -129 20 -3 4 12 30 34 59 57 74 73 110 73 161
0 65 -55 138 -137 184 -18 10 -33 20 -33 23 0 3 13 11 30 18 92 41 93 191 1
245 -31 18 -31 18 -40 -5 l-8 -23 -7 23 c-16 50 -114 11 -145 -59 -14 -30 -21
-36 -28 -27 -20 25 -25 80 -18 218 l7 139 28 11 c106 44 122 193 27 250 -18
12 -50 20 -74 20 -42 0 -43 -1 -43 -32 -1 -30 -2 -31 -12 -13 -6 11 -12 21
-14 23 -8 10 -44 -22 -58 -52 -33 -71 -10 -147 59 -187 31 -18 35 -26 35 -61
l0 -40 -30 26 c-36 30 -92 43 -129 29 -21 -7 -25 -14 -23 -38 3 -29 3 -29 -17
-11 -21 19 -22 19 -36 0 -44 -58 -36 -141 19 -191 31 -29 43 -33 89 -33 50 0
90 16 109 44 4 6 8 -7 8 -29 0 -22 9 -58 19 -80 20 -45 123 -145 194 -190 51
-32 58 -45 27 -45 -25 0 -90 -57 -90 -79 0 -9 14 -28 32 -44 l33 -27 -42 6
-42 6 9 -32 c20 -71 70 -110 141 -110 l31 0 -20 -32 c-25 -38 -37 -40 -237
-27 -415 27 -952 52 -1355 64 -107 3 -240 8 -295 11 l-100 6 -51 77 c-28 42
-58 89 -68 104 -17 28 -20 28 -91 25 -73 -3 -74 -3 -91 27 -9 17 -30 47 -47
68 l-29 37 27 -10 c33 -13 100 -13 145 0 75 21 149 112 150 184 0 31 6 31
-100 11 l-35 -7 35 29 c19 15 48 40 65 54 l29 27 -27 40 c-32 50 -100 91 -163
100 l-46 7 89 56 c48 31 102 64 119 72 37 19 178 177 207 232 15 28 22 65 25
127 l4 86 32 -36 c63 -72 180 -96 262 -54 45 23 100 80 116 121 26 69 2 191
-47 231 -13 11 -20 9 -43 -13 -38 -37 -44 -34 -27 14 8 23 13 45 10 49 -3 4
-27 13 -55 20 -77 19 -140 0 -203 -61 -28 -27 -52 -49 -54 -49 -2 0 -3 34 -1
76 l3 76 40 14 c22 7 59 33 82 57 61 65 78 143 48 228 -14 39 -78 119 -96 119
-3 0 -15 -19 -25 -42 l-19 -43 -5 55 -5 55 -56 3 c-161 8 -278 -165 -210 -313
22 -49 73 -100 115 -115 80 -30 72 -14 79 -166 10 -198 8 -343 -4 -386 -5 -21
-21 -50 -34 -65 l-24 -28 -1 28 c-1 95 -103 197 -198 197 -34 0 -40 -4 -57
-37 l-19 -38 -4 33 c-4 39 -20 41 -68 8 -156 -105 -126 -338 51 -399 l35 -12
-95 -63 c-139 -92 -195 -170 -195 -271 0 -66 24 -118 105 -226 37 -49 71 -97
75 -105 13 -25 -96 -70 -203 -83 l-89 -11 5 -52 5 -51 -341 5 c-188 2 -343 6
-345 7 -2 2 15 56 37 121 49 148 70 268 78 454 8 210 -21 503 -77 758 -7 29
-10 55 -8 56 1 2 53 20 113 41 604 206 996 489 1133 817 24 57 27 76 27 188 0
137 -12 181 -86 308 -57 96 -236 267 -379 361 -208 137 -516 276 -768 346 -60
17 -63 19 -57 44 22 87 57 274 70 381 58 467 4 852 -154 1085 -39 57 -134 144
-190 174 -153 81 -361 83 -599 5 -107 -36 -300 -132 -425 -214 l-106 -69 -31
35 c-33 38 -35 47 -19 114 6 25 17 99 24 165 7 66 23 165 35 220 16 73 23 136
23 231 1 150 -8 175 -72 202 l-38 16 5 71 c4 81 -18 231 -49 325 -28 86 -62
143 -111 184 -36 31 -39 37 -32 70 24 133 -141 243 -254 169 -13 -8 -26 -12
-28 -10 -6 6 46 44 77 56 23 9 23 10 -7 10 -19 1 -46 -10 -71 -28z m-1044
-1771 c100 -17 239 -65 352 -123 100 -52 219 -123 219 -132 0 -2 -22 -34 -50
-70 -27 -36 -50 -73 -50 -81 0 -7 -32 -83 -71 -166 -38 -84 -85 -198 -104
-254 -52 -157 -112 -306 -145 -357 l-30 -47 36 0 c32 0 35 -2 23 -16 -7 -8
-24 -21 -38 -28 -36 -19 -206 -46 -284 -46 -43 0 -70 -5 -79 -14 -16 -15 -125
-43 -134 -33 -3 3 -19 69 -34 147 -119 588 -56 1085 151 1191 74 37 136 45
238 29z m2576 -14 c142 -67 215 -244 240 -586 12 -151 -22 -488 -71 -702 -14
-60 -18 -68 -39 -68 -34 0 -55 10 -55 26 0 19 -42 28 -100 20 -33 -4 -78 0
-142 14 -116 25 -140 35 -170 67 -22 25 -22 25 -1 14 12 -6 25 -16 28 -21 4
-6 10 -8 15 -5 18 11 -17 110 -95 270 -85 173 -248 547 -261 598 -3 16 -31 55
-61 87 l-54 59 53 34 c290 186 569 261 713 193z m-974 -503 c22 -20 39 -45 39
-57 0 -11 11 -41 25 -65 14 -23 25 -50 25 -58 0 -19 71 -191 159 -387 69 -152
83 -203 37 -142 -194 262 -313 413 -453 569 l-55 62 72 67 c81 75 80 75 151
11z m-662 -26 c28 -26 51 -50 51 -53 0 -3 -39 -49 -86 -102 -91 -102 -286
-343 -344 -424 -18 -27 -35 -46 -38 -44 -7 8 47 144 123 306 40 85 85 189 101
230 17 46 42 90 67 117 45 49 41 50 126 -30z m435 -463 c56 -67 115 -141 133
-166 l32 -44 -354 0 -355 0 27 35 c44 60 102 130 217 265 l111 128 44 -48 c24
-27 90 -104 145 -170z m265 -493 c123 -9 102 9 240 -208 116 -182 252 -419
357 -620 l79 -153 -73 -144 c-126 -247 -434 -771 -486 -824 -26 -27 -606 -41
-980 -24 -174 9 -143 -14 -285 209 -128 200 -267 446 -360 630 l-76 154 52
102 c134 262 314 573 446 772 33 50 62 92 63 94 15 18 823 27 1023 12z m-1451
-88 l41 -18 -81 -135 c-44 -74 -116 -200 -159 -279 l-78 -144 -16 39 c-64 150
-177 472 -170 484 4 7 88 24 330 69 57 10 77 8 133 -16z m2303 -19 c74 -14
141 -29 148 -34 11 -6 6 -31 -24 -116 -39 -111 -110 -298 -140 -368 l-16 -39
-86 154 c-46 85 -113 201 -148 259 -35 58 -65 112 -67 119 -2 9 17 23 52 37
64 27 82 26 281 -12z m-3007 -191 c47 -145 124 -348 198 -521 39 -90 68 -171
65 -180 -3 -9 -33 -80 -66 -156 -64 -146 -149 -370 -197 -520 -16 -49 -35 -91
-42 -93 -7 -3 -73 15 -147 41 -470 163 -812 396 -920 628 -60 128 -18 265 125
408 119 119 327 250 550 346 94 40 361 133 385 133 17 1 26 -14 49 -86z m3543
56 c364 -117 666 -281 843 -459 102 -103 142 -174 148 -268 4 -57 1 -70 -33
-138 -86 -175 -310 -349 -645 -503 -107 -48 -128 -57 -289 -112 -63 -22 -117
-36 -121 -32 -3 4 -33 82 -65 173 -32 91 -96 253 -142 360 -47 107 -89 206
-95 220 -9 21 -1 46 50 160 69 157 156 381 203 528 19 56 37 102 41 102 4 0
51 -14 105 -31z m-495 -1226 c93 -233 133 -353 122 -362 -15 -14 -541 -106
-552 -97 -1 2 40 72 91 157 90 149 223 385 248 442 7 15 15 27 19 27 3 0 36
-75 72 -167z m-2360 -298 c50 -82 93 -154 96 -159 10 -17 -521 65 -542 84 -4
5 9 59 29 122 36 107 139 380 151 400 3 5 44 -59 91 -144 46 -84 125 -220 175
-303z m2601 -485 c41 -215 51 -313 50 -510 0 -305 -50 -499 -159 -630 -178
-211 -685 -27 -1196 433 -43 38 -78 73 -78 76 0 4 50 65 111 136 89 104 307
385 389 502 13 19 33 23 170 38 145 15 480 69 615 98 42 9 62 10 66 3 4 -6 18
-72 32 -146z m-3003 119 c155 -30 417 -67 568 -81 l133 -12 114 -151 c110
-146 238 -303 360 -440 l60 -68 -60 -54 c-368 -334 -748 -534 -1015 -535 -105
0 -154 15 -210 68 -62 58 -105 141 -137 261 -35 134 -43 421 -19 623 27 217
68 410 89 410 7 0 59 -9 117 -21z m1770 -125 c0 -15 -295 -381 -333 -412 -13
-11 -23 -5 -62 37 -51 54 -192 223 -268 320 l-48 61 355 0 c196 0 356 -3 356
-6z m-262 -895 c43 -39 128 -112 190 -161 61 -50 112 -92 112 -94 0 -2 -177
-4 -392 -3 l-393 0 29 22 c95 71 240 190 296 244 36 34 69 62 73 63 5 0 43
-32 85 -71z"/>
<path d="M5320 5455 c-195 -54 -347 -202 -404 -394 -20 -69 -21 -217 -1 -291
50 -187 201 -341 389 -395 71 -21 201 -23 276 -6 92 22 180 71 256 144 305
288 192 791 -208 928 -83 28 -231 35 -308 14z"/>
</g>
</svg>
